<svg width="279" height="312" viewBox="0 0 279 312" fill="none" xmlns="http://www.w3.org/2000/svg">
<path fill-rule="evenodd" clip-rule="evenodd" d="M54.1578 46.6494C63.9843 22.6169 98.0169 22.6168 107.843 46.6494L121.15 79.1953C123.415 79.0654 125.699 79 128.001 79C154.86 79 179.364 87.9815 197.932 102.755C225.622 105.944 249.451 131.601 243.317 164.032C240.507 178.889 244.328 194.231 253.777 206.035C283.832 243.58 250.961 298.253 203.706 289.316C188.849 286.507 173.506 290.328 161.703 299.777C125.469 328.784 73.2819 299.179 77.7164 254.6C45.1141 238.732 23.0006 207.916 23.0006 172.5C23.0006 171.598 23.0161 170.7 23.0445 169.805C5.26008 163.981 -3.75053 141.214 9.25156 124.429L34.5846 91.7236C36.1907 89.6501 37.5079 87.3681 38.5006 84.9404L54.1578 46.6494Z" fill="#52545C"/>
<path d="M154 255C163.389 255 171.315 262.886 167.793 271.589C167.418 272.516 167.011 273.43 166.572 274.327C163.665 280.274 159.461 285.344 154.334 289.09C149.206 292.836 143.313 295.142 137.176 295.803C131.038 296.463 124.847 295.459 119.149 292.879C113.452 290.299 108.424 286.222 104.512 281.01C100.6 275.798 97.9237 269.612 96.7206 262.999C95.5174 256.386 95.8246 249.55 97.6147 243.098C97.7114 242.75 97.8122 242.403 97.9171 242.059C100.824 232.505 112.788 232.355 119.528 239.724L128.445 249.473C131.666 252.995 136.218 255 140.99 255H154Z" fill="#393E46"/>
<path d="M112.995 201.208C120.823 206.392 131.786 204.193 133.655 194.992C134.638 190.151 134.778 185.19 134.019 180.358C132.401 170.064 126.833 161.196 118.541 155.705C110.249 150.214 99.911 148.549 89.8021 151.077C85.0566 152.263 80.5441 154.328 76.4704 157.123C68.7286 162.435 70.9834 173.386 78.8114 178.57L95.9034 189.889L112.995 201.208Z" fill="#393E46"/>
<path d="M76.6777 228.895C85.4362 229.282 93.4288 222.63 91.1232 214.171C89.7795 209.242 87.4862 204.715 84.3744 200.851C81.2625 196.986 77.3929 193.858 72.9866 191.646C65.4903 187.883 57.9214 194.396 56.9223 202.724L56.0867 209.689C54.9084 219.511 62.3328 228.261 72.2156 228.698L76.6777 228.895Z" fill="#393E46"/>
<path d="M184.368 251.82C185.132 263.315 192.829 273.731 204.297 274.819C207.269 275.101 210.181 275.205 213.013 275.126C221.588 274.887 229.267 272.986 235.613 269.531C241.958 266.075 246.845 261.134 249.995 254.988C250.421 254.157 250.814 253.306 251.175 252.436C255.58 241.792 246.748 231.421 235.768 227.937L220.769 223.177C201.966 217.211 183.06 232.137 184.368 251.82Z" fill="#393E46"/>
<path d="M216 159.5C225.941 159.5 234.298 151.221 231.035 141.83C229.841 138.391 228.295 135.092 226.416 131.999C221.471 123.859 214.443 117.515 206.221 113.768C197.998 110.021 188.95 109.041 180.221 110.951C171.492 112.861 163.474 117.576 157.18 124.498C150.887 131.421 146.601 140.241 144.865 149.843C143.128 159.445 144.019 169.398 147.425 178.443C150.831 187.488 156.599 195.219 163.999 200.658C166.397 202.42 168.931 203.916 171.564 205.133C180.588 209.305 189 200.941 189 191V177.5C189 167.559 197.059 159.5 207 159.5H216Z" fill="#393E46"/>
<path d="M89.1836 134.158C74.7935 147.668 51.0436 147.464 45.0645 128.653C45.0181 128.507 44.9721 128.36 44.9266 128.214C41.3843 116.814 40.756 104.634 43.0922 92.6578C45.4285 80.6812 50.6639 69.243 58.3761 59.2661C58.6586 58.9006 58.9442 58.5374 59.2327 58.1767C71.9178 42.3163 95.0568 49.7393 104.443 67.7491L109.705 77.8443C117.371 92.5532 114.311 110.567 102.219 121.92L89.1836 134.158Z" fill="#393E46"/>
<path fill-rule="evenodd" clip-rule="evenodd" d="M219 171C225.802 171 231.723 174.983 234.784 180.859C237.938 183.195 239.592 187.515 237.68 191.794L236.606 194.196C236.572 194.273 236.539 194.35 236.507 194.427C236.352 195.115 236.16 195.788 235.936 196.445L235.089 201.603C234.097 207.641 227.887 210.486 222.916 208.547C221.656 208.842 220.345 209 219 209C213.688 209 208.912 206.57 205.618 202.706C198.988 202.182 194.917 194.422 199.044 188.552L201.682 184.799C202.274 182.599 203.233 180.562 204.483 178.766C205.254 177.224 206.373 176.046 207.674 175.232C210.767 172.586 214.708 171 219 171Z" fill="#393E46"/>
</svg>
