<svg width="492" height="485" viewBox="0 0 492 485" fill="none" xmlns="http://www.w3.org/2000/svg">
<circle cx="248" cy="212" r="83" fill="#52545C"/>
<path d="M162.302 136.908C172.331 109.802 210.669 109.802 220.698 136.908C223.852 145.429 230.571 152.148 239.092 155.302C266.198 165.331 266.198 203.669 239.092 213.698C230.571 216.852 223.852 223.571 220.698 232.092C210.669 259.198 172.331 259.198 162.302 232.092C159.148 223.571 152.429 216.852 143.908 213.698C116.802 203.669 116.802 165.331 143.908 155.302C152.429 152.148 159.148 145.429 162.302 136.908Z" fill="#52545C"/>
<path d="M284.618 172.92C324.299 165.201 351.461 211.864 325.151 242.555C317.057 251.997 313.513 264.67 315.401 276.962C321.634 317.549 274.263 345.122 242.05 319.658C232.294 311.946 219.524 308.769 207.317 311.144C167.636 318.864 140.474 272.201 166.784 241.509C174.877 232.067 178.422 219.395 176.534 207.103C170.301 166.516 217.671 138.943 249.885 164.407C259.641 172.119 272.411 175.295 284.618 172.92Z" fill="#52545C"/>
<path d="M201.893 190C211.341 190 219.24 181.804 214.187 173.821C211.025 168.826 206.445 164.533 200.837 161.307C195.229 158.081 188.759 156.017 181.975 155.292C175.192 154.566 168.296 155.199 161.873 157.138C155.45 159.077 149.691 162.264 145.084 166.428C140.477 170.592 137.159 175.611 135.411 181.057C133.663 186.503 133.537 192.217 135.044 197.712C137.752 207.584 150.135 208.388 158.531 202.532L168.164 195.814C173.591 192.029 180.047 190 186.663 190H201.893Z" fill="#393E46"/>
<path d="M272.064 261.329C279.118 251.428 293.467 248.958 299.837 259.311C303.592 265.413 305.834 271.965 306.363 278.386C306.892 284.807 305.693 290.899 302.871 296.123C300.05 301.347 295.693 305.542 290.187 308.334C284.681 311.127 278.196 312.433 271.306 312.135C264.416 311.838 257.334 309.946 250.687 306.628C244.04 303.311 238.033 298.669 233.199 293.114C226.109 284.968 233.313 274.264 244.099 273.721L252.601 273.293C259.767 272.932 266.374 269.314 270.538 263.471L272.064 261.329Z" fill="#393E46"/>
<path d="M235.601 188.206C222.335 177.955 217.975 158.046 232.47 149.622C233.783 148.859 235.129 148.158 236.505 147.523C246.428 142.941 257.491 141.942 268.295 144.653C279.099 147.364 289.159 153.662 297.202 162.752C297.904 163.545 298.588 164.356 299.253 165.184C311.01 179.826 298.579 198.809 280.193 202.622L275.06 203.686C265.34 205.702 255.224 203.368 247.368 197.298L235.601 188.206Z" fill="#393E46"/>
<path d="M219.633 209.648C215.244 204.456 215.296 196.041 221.934 194.571C225.685 193.74 229.561 194.219 233.072 195.947C236.583 197.675 239.571 200.575 241.658 204.28C245.186 210.543 238.971 216.708 231.782 216.644L231.567 216.642C227.715 216.607 224.07 214.895 221.583 211.953L219.633 209.648Z" fill="#393E46"/>
<path d="M246.224 240.57C252.176 250.143 250.383 263.219 239.877 267.304C235.318 269.077 230.598 270.198 225.827 270.62C214.863 271.589 204.125 268.82 194.973 262.661C185.821 256.503 178.664 247.232 174.409 236.021C172.544 231.106 171.272 225.915 170.608 220.583C169.164 208.995 180.282 200.959 191.849 202.564L205.899 204.515C210.215 205.114 212.95 209.364 214.496 213.438C215.413 215.852 216.954 217.85 218.926 219.176C220.897 220.503 223.21 221.099 225.572 220.891C229.419 220.55 234.033 220.958 236.071 224.238L246.224 240.57Z" fill="#393E46"/>
</svg>
